{
    "asset": {
        "version": "2.0",
        "generator": "Open Asset Import Library (assimp v5.0.5eb040c7)"
    },
    "accessors": [
        {
            "bufferView": 0,
            "byteOffset": 0,
            "componentType": 5126,
            "count": 17660,
            "type": "VEC3",
            "max": [
                9.33430290222168,
                9.762286186218262,
                16.17540168762207
            ],
            "min": [
                -9.33430290222168,
                -9.758517265319825,
                0.0
            ]
        },
        {
            "bufferView": 1,
            "byteOffset": 0,
            "componentType": 5126,
            "count": 17660,
            "type": "VEC3",
            "max": [
                1.0,
                1.0,
                1.0
            ],
            "min": [
                -1.0,
                -1.0,
                -1.0
            ]
        },
        {
            "bufferView": 2,
            "byteOffset": 0,
            "componentType": 5126,
            "count": 17660,
            "type": "VEC2",
            "max": [
                0.5153030157089233,
                1.4974839687347413
            ],
            "min": [
                -0.5151810050010681,
                0.5168460011482239
            ]
        },
        {
            "bufferView": 3,
            "byteOffset": 0,
            "componentType": 5125,
            "count": 44244,
            "type": "SCALAR",
            "max": [
                17659
            ],
            "min": [
                0
            ]
        }
    ],
    "buffers": [
        {
            "byteLength": 742096,
            "uri": "result.bin"
        }
    ],
    "bufferViews": [
        {
            "buffer": 0,
            "byteOffset": 0,
            "byteLength": 211920,
            "target": 34962
        },
        {
            "buffer": 0,
            "byteOffset": 211920,
            "byteLength": 211920,
            "target": 34962
        },
        {
            "buffer": 0,
            "byteOffset": 423840,
            "byteLength": 141280,
            "target": 34962
        },
        {
            "buffer": 0,
            "byteOffset": 565120,
            "byteLength": 176976,
            "target": 34963
        }
    ],
    "materials": [
        {
            "name": "DefaultMaterial",
            "pbrMetallicRoughness": {
                "baseColorFactor": [
                    0.6000000238418579,
                    0.6000000238418579,
                    0.6000000238418579,
                    1.0
                ],
                "metallicFactor": 0.0
            }
        },
        {
            "name": "Gold_-_Polished",
            "pbrMetallicRoughness": {
                "baseColorFactor": [
                    0.6000000238418579,
                    0.6000000238418579,
                    0.6000000238418579,
                    1.0
                ],
                "metallicFactor": 0.0
            }
        }
    ],
    "meshes": [
        {
            "name": "Body13",
            "primitives": [
                {
                    "mode": 4,
                    "material": 1,
                    "indices": 3,
                    "attributes": {
                        "POSITION": 0,
                        "NORMAL": 1,
                        "TEXCOORD_0": 2
                    }
                }
            ]
        }
    ],
    "nodes": [
        {
            "name": "input.obj",
            "children": [
                1
            ]
        },
        {
            "name": "Body13",
            "mesh": 0
        }
    ],
    "scenes": [
        {
            "nodes": [
                0
            ]
        }
    ],
    "scene": 0
}